<?xml version="1.0" encoding="UTF-8"?>
<svg version="1.1" xmlns="http://www.w3.org/2000/svg" width="48" height="48">
<path d="M0 0 C-0.14288011 5.71520432 -2.72685576 8.34418023 -6.50390625 12.265625 C-8.21772525 13.87065346 -8.21772525 13.87065346 -8 16 C-7.01 16 -6.02 16 -5 16 C-5.33 17.98 -5.66 19.96 -6 22 C-4.68 22.66 -3.36 23.32 -2 24 C-2.350625 24.61875 -2.70125 25.2375 -3.0625 25.875 C-4.41103435 30.37011449 -3.65959866 34.40954987 -3 39 C-4.32 39.66 -5.64 40.32 -7 41 C-7 40.01 -7 39.02 -7 38 C-7.66 38 -8.32 38 -9 38 C-9.495 35.03 -9.495 35.03 -10 32 C-10.66 32 -11.32 32 -12 32 C-13.32 29.36 -14.64 26.72 -16 24 C-19.9469935 25.86255292 -19.9469935 25.86255292 -23.125 28.125 C-26 30 -26 30 -28 30 C-27.67 33.3 -27.34 36.6 -27 40 C-27.99 40.66 -28.98 41.32 -30 42 C-33 37.25 -33 37.25 -33 35 C-34.98 35.495 -34.98 35.495 -37 36 C-36.67 34.68 -36.34 33.36 -36 32 C-37.98 31.34 -39.96 30.68 -42 30 C-42 27 -42 27 -41 26 C-39.30858344 26.08963062 -37.62040398 26.24577676 -35.9375 26.4375 C-35.01839844 26.53933594 -34.09929688 26.64117188 -33.15234375 26.74609375 C-32.44207031 26.82988281 -31.73179688 26.91367187 -31 27 C-30.62875 25.9171875 -30.62875 25.9171875 -30.25 24.8125 C-28.89191349 21.75680536 -27.09616287 19.58526754 -25 17 C-25 16.34 -25 15.68 -25 15 C-27.64 13.68 -30.28 12.36 -33 11 C-33 10.34 -33 9.68 -33 9 C-35.97 8.505 -35.97 8.505 -39 8 C-39 7.34 -39 6.68 -39 6 C-39.99 6 -40.98 6 -42 6 C-41.34 4.68 -40.68 3.36 -40 2 C-39.16855469 2.09539063 -38.33710937 2.19078125 -37.48046875 2.2890625 C-36.39378906 2.39992188 -35.30710937 2.51078125 -34.1875 2.625 C-32.56908203 2.79902344 -32.56908203 2.79902344 -30.91796875 2.9765625 C-27.80375668 3.27460156 -27.80375668 3.27460156 -25 1 C-24.566875 1.9590625 -24.566875 1.9590625 -24.125 2.9375 C-23.17176549 5.15206079 -23.17176549 5.15206079 -21 6 C-21 5.34 -21 4.68 -21 4 C-19.68 4 -18.36 4 -17 4 C-17 4.99 -17 5.98 -17 7 C-14.17462936 5.80465088 -12.32924926 4.43875959 -9.9375 2.4375 C-6.26354805 -0.61109843 -4.47902147 -1.39004115 0 0 Z " fill="#B4BDC6" transform="translate(45,4)"/>
<path d="M0 0 C5.517155 0.6338479 10.26747809 2.50564309 15.375 4.5625 C16.20644531 4.89185547 17.03789062 5.22121094 17.89453125 5.56054688 C19.93184618 6.36844762 21.96684442 7.1817011 24 8 C23.59007813 8.47050781 23.18015625 8.94101563 22.7578125 9.42578125 C22.21898438 10.04839844 21.68015625 10.67101563 21.125 11.3125 C20.32449219 12.23482422 20.32449219 12.23482422 19.5078125 13.17578125 C17.8359553 15.13498212 17.8359553 15.13498212 16 18 C21.86683307 12.31586284 21.86683307 12.31586284 27.25 6.1875 C29.26612182 3.66734772 31.34847366 1.83567208 34 0 C34.99 0 35.98 0 37 0 C36.29693668 6.15180408 32.47182161 9.97536055 28 14 C27.34 14 26.68 14 26 14 C25.67 14.99 25.34 15.98 25 17 C23.15234375 18.75390625 23.15234375 18.75390625 20.9375 20.5625 C19.58840481 21.66501188 18.26611103 22.80310688 17 24 C17 24.66 17 25.32 17 26 C15.68 26.33 14.36 26.66 13 27 C13.33 30.3 13.66 33.6 14 37 C13.01 37.66 12.02 38.32 11 39 C8 34.25 8 34.25 8 32 C6.02 32.495 6.02 32.495 4 33 C4.33 31.68 4.66 30.36 5 29 C3.02 28.34 1.04 27.68 -1 27 C-1 24 -1 24 0 23 C1.69141656 23.08963062 3.37959602 23.24577676 5.0625 23.4375 C5.98160156 23.53933594 6.90070312 23.64117188 7.84765625 23.74609375 C8.55792969 23.82988281 9.26820312 23.91367187 10 24 C10.37125 22.9171875 10.37125 22.9171875 10.75 21.8125 C12.10808651 18.75680536 13.90383713 16.58526754 16 14 C16 13.34 16 12.68 16 12 C13.36 10.68 10.72 9.36 8 8 C8 7.34 8 6.68 8 6 C5.03 5.505 5.03 5.505 2 5 C2 4.34 2 3.68 2 3 C1.01 3 0.02 3 -1 3 C-0.67 2.01 -0.34 1.02 0 0 Z " fill="#B6BAC0" transform="translate(4,7)"/>
<path d="M0 0 C-0.70306332 6.15180408 -4.52817839 9.97536055 -9 14 C-9.66 14 -10.32 14 -11 14 C-11.33 14.99 -11.66 15.98 -12 17 C-13.84765625 18.75390625 -13.84765625 18.75390625 -16.0625 20.5625 C-17.41159519 21.66501188 -18.73388897 22.80310688 -20 24 C-20 24.66 -20 25.32 -20 26 C-21.65 25.67 -23.3 25.34 -25 25 C-25 22 -25 22 -23 19.8125 C-22.00275095 18.87207426 -21.00232062 17.93501852 -20 17 C-14.6768052 11.83537457 -14.6768052 11.83537457 -9.8125 6.25 C-6.97969081 2.73340928 -4.65441045 0 0 0 Z " fill="#E3E3E4" transform="translate(41,7)"/>
<path d="M0 0 C2.52282786 3.78424179 4.02402293 7.72046895 5.6875 11.9375 C6.02072266 12.74896484 6.35394531 13.56042969 6.69726562 14.39648438 C7.16229492 15.57500977 7.16229492 15.57500977 7.63671875 16.77734375 C7.92248779 17.49140381 8.20825684 18.20546387 8.50268555 18.94116211 C9.07696777 21.31863975 8.77289597 22.70710752 8 25 C7.34 25 6.68 25 6 25 C6 24.01 6 23.02 6 22 C5.34 22 4.68 22 4 22 C3.67 20.02 3.34 18.04 3 16 C2.34 16 1.68 16 1 16 C-0.32 13.36 -1.64 10.72 -3 8 C-4.98 8.99 -4.98 8.99 -7 10 C-8.66140763 10.67966676 -10.32700041 11.34938905 -12 12 C-10.71937515 10.2925002 -9.38232443 8.62626404 -8 7 C-7.34 7 -6.68 7 -6 7 C-5.67 6.01 -5.34 5.02 -5 4 C-3.37667033 2.61423077 -1.71275535 1.27358732 0 0 Z " fill="#CFD1D2" transform="translate(32,20)"/>
<path d="M0 0 C0.99 0.66 1.98 1.32 3 2 C3 2.66 3 3.32 3 4 C3.66 4.33 4.32 4.66 5 5 C5 4.34 5 3.68 5 3 C6.32 3 7.64 3 9 3 C9 3.99 9 4.98 9 6 C10.32 5.67 11.64 5.34 13 5 C12 8 12 8 9 10 C3.65136659 9.69050934 -1.01274647 7.51837969 -5.875 5.4375 C-6.65875 5.10814453 -7.4425 4.77878906 -8.25 4.43945312 C-10.16908756 3.63203214 -12.0848865 2.81680231 -14 2 C-14 1.67 -14 1.34 -14 1 C-13.15695313 1.09539063 -12.31390625 1.19078125 -11.4453125 1.2890625 C-10.34960938 1.39992188 -9.25390625 1.51078125 -8.125 1.625 C-7.03445312 1.74101563 -5.94390625 1.85703125 -4.8203125 1.9765625 C-3.42425781 1.98816406 -3.42425781 1.98816406 -2 2 C-1.34 1.34 -0.68 0.68 0 0 Z " fill="#5F94CB" transform="translate(19,5)"/>
<path d="M0 0 C5.02474293 0.61830949 9.24720494 2.12976776 13.875 4.0625 C14.90753906 4.48499023 14.90753906 4.48499023 15.9609375 4.91601562 C17.64289909 5.60515266 19.32177697 6.30180798 21 7 C21 7.99 21 8.98 21 10 C20.01 10 19.02 10 18 10 C18 10.99 18 11.98 18 13 C14.7 11.35 11.4 9.7 8 8 C8 7.34 8 6.68 8 6 C5.03 5.505 5.03 5.505 2 5 C2 4.34 2 3.68 2 3 C1.01 3 0.02 3 -1 3 C-0.67 2.01 -0.34 1.02 0 0 Z " fill="#CFD2D5" transform="translate(4,7)"/>
<path d="M0 0 C0.66 0.66 1.32 1.32 2 2 C2.99 2 3.98 2 5 2 C4.67 3.98 4.34 5.96 4 8 C5.32 8.66 6.64 9.32 8 10 C7.649375 10.61875 7.29875 11.2375 6.9375 11.875 C5.58896565 16.37011449 6.34040134 20.40954987 7 25 C3.93855542 21.93855542 2.87054392 18.11534095 1.3125 14.125 C0.97927734 13.30902344 0.64605469 12.49304687 0.30273438 11.65234375 C-0.00728516 10.86214844 -0.31730469 10.07195313 -0.63671875 9.2578125 C-0.92248779 8.5373877 -1.20825684 7.81696289 -1.50268555 7.07470703 C-2.07998001 4.66633769 -1.83318398 3.31080578 -1 1 C-0.67 0.67 -0.34 0.34 0 0 Z " fill="#638DBB" transform="translate(35,18)"/>
<path d="M0 0 C1.74959319 2.62438979 2.62068453 3.96547627 3 7 C2.01 8.485 2.01 8.485 1 10 C0.01 10 -0.98 10 -2 10 C-2.33 9.34 -2.66 8.68 -3 8 C-3.556875 8.28875 -4.11375 8.5775 -4.6875 8.875 C-7.08494645 10.0413253 -9.51596939 11.0339881 -12 12 C-10.71937515 10.2925002 -9.38232443 8.62626404 -8 7 C-7.34 7 -6.68 7 -6 7 C-5.67 6.01 -5.34 5.02 -5 4 C-3.37667033 2.61423077 -1.71275535 1.27358732 0 0 Z " fill="#9DA5AE" transform="translate(32,20)"/>
<path d="M0 0 C0.99 0.33 1.98 0.66 3 1 C4.80795432 5.0916861 5.21156222 8.55719328 5 13 C2.94876752 10.94876752 2.35852882 9.72994937 1.375 7.0625 C0.98441406 6.02802734 0.98441406 6.02802734 0.5859375 4.97265625 C0 3 0 3 0 0 Z " fill="#3283DA" transform="translate(37,30)"/>
<path d="M0 0 C1.31722179 0.42307123 2.62872664 0.86397486 3.9375 1.3125 C4.66839844 1.55613281 5.39929688 1.79976562 6.15234375 2.05078125 C8 3 8 3 9 6 C8.01 6.33 7.02 6.66 6 7 C6 6.34 6 5.68 6 5 C4.02 4.34 2.04 3.68 0 3 C0 2.01 0 1.02 0 0 Z " fill="#D7DADC" transform="translate(3,31)"/>
<path d="M0 0 C-0.33 0.66 -0.66 1.32 -1 2 C-1.99 2 -2.98 2 -4 2 C-4 2.99 -4 3.98 -4 5 C-5.32 4.34 -6.64 3.68 -8 3 C-8 1.68 -8 0.36 -8 -1 C-4.37673261 -2.2077558 -3.35853631 -1.54311128 0 0 Z " fill="#C0C2C4" transform="translate(26,15)"/>
<path d="M0 0 C3.3 0.33 6.6 0.66 10 1 C9.67 1.99 9.34 2.98 9 4 C4.545 3.01 4.545 3.01 0 2 C0 1.34 0 0.68 0 0 Z " fill="#4382C4" transform="translate(4,30)"/>
<path d="M0 0 C0.66 0 1.32 0 2 0 C2.33 3.3 2.66 6.6 3 10 C2.01 10.495 2.01 10.495 1 11 C0.63890458 9.35567294 0.28629924 7.7094792 -0.0625 6.0625 C-0.25972656 5.14597656 -0.45695313 4.22945312 -0.66015625 3.28515625 C-0.77230469 2.53105469 -0.88445313 1.77695312 -1 1 C-0.67 0.67 -0.34 0.34 0 0 Z " fill="#4382C3" transform="translate(15,34)"/>
<path d="M0 0 C0.66 0 1.32 0 2 0 C2.33 2.97 2.66 5.94 3 9 C-0.06000643 5.93999357 -0.56942344 5.09047728 -1 1 C-0.67 0.67 -0.34 0.34 0 0 Z " fill="#D1D7DE" transform="translate(13,37)"/>
<path d="M0 0 C2.44839588 3.67259383 4 6.54648201 4 11 C3.34 11 2.68 11 2 11 C1.47007308 9.54494642 0.9513211 8.08581873 0.4375 6.625 C0.14746094 5.81289063 -0.14257812 5.00078125 -0.44140625 4.1640625 C-1 2 -1 2 0 0 Z " fill="#C4CAD1" transform="translate(37,33)"/>
<path d="M0 0 C0 0.99 0 1.98 0 3 C-3 5 -3 5 -5.6875 4.625 C-6.450625 4.41875 -7.21375 4.2125 -8 4 C-8 3.34 -8 2.68 -8 2 C-6.865625 1.855625 -5.73125 1.71125 -4.5625 1.5625 C-1.19222799 1.38828522 -1.19222799 1.38828522 0 0 Z " fill="#3471B2" transform="translate(31,10)"/>
<path d="M0 0 C0.66 0 1.32 0 2 0 C2.33 0.99 2.66 1.98 3 3 C2.01 4.485 2.01 4.485 1 6 C0.01 6 -0.98 6 -2 6 C-2 5.01 -2 4.02 -2 3 C-1.34 3 -0.68 3 0 3 C0 2.01 0 1.02 0 0 Z " fill="#B7B9BA" transform="translate(32,24)"/>
</svg>
